<?xml version="1.0" standalone="no"?>
<!DOCTYPE svg PUBLIC "-//W3C//DTD SVG 20010904//EN"
 "http://www.w3.org/TR/2001/REC-SVG-20010904/DTD/svg10.dtd">
<svg version="1.0" xmlns="http://www.w3.org/2000/svg"
 width="700.000000pt" height="700.000000pt" viewBox="0 0 700.000000 700.000000"
 preserveAspectRatio="xMidYMid meet">
<metadata>
Created by potrace 1.14, written by Peter Selinger 2001-2017
</metadata>
<g transform="translate(0.000000,700.000000) scale(0.100000,-0.100000)"
fill="#000000" stroke="none">
<path d="M3308 6995 c-1 -2 -32 -6 -68 -9 -417 -35 -854 -197 -1196 -443 -480
-344 -795 -874 -862 -1448 -15 -128 -6 -575 13 -645 2 -8 7 -31 10 -50 3 -19
8 -46 10 -60 3 -14 7 -34 9 -45 11 -57 84 -293 96 -310 3 -5 15 -32 25 -60 46
-125 177 -342 295 -489 167 -207 469 -460 720 -605 30 -18 62 -36 70 -41 24
-15 163 -94 258 -146 65 -36 66 -38 35 -55 -15 -8 -144 -78 -287 -156 l-260
-142 -51 28 c-27 16 -86 48 -130 71 -44 24 -84 46 -90 50 -5 4 -55 31 -110 60
-55 29 -143 76 -195 105 -125 68 -201 110 -280 153 -36 19 -91 50 -123 68 -32
19 -60 34 -63 34 -3 0 -52 27 -111 60 -58 33 -107 60 -109 60 -1 0 -69 37
-151 81 -81 45 -173 95 -203 111 -30 16 -73 39 -95 51 -22 13 -80 45 -130 72
-49 26 -145 79 -212 116 l-123 67 0 -412 0 -412 52 -27 c29 -14 82 -42 118
-62 87 -48 172 -95 245 -135 33 -18 83 -45 110 -60 124 -68 154 -85 215 -118
36 -19 153 -83 260 -142 107 -59 243 -133 303 -165 59 -32 106 -63 104 -68 -1
-5 -25 -21 -52 -36 -64 -35 -285 -156 -350 -191 -71 -39 -272 -148 -325 -178
-25 -13 -74 -40 -110 -60 -36 -19 -110 -60 -165 -90 -55 -30 -125 -68 -155
-85 -94 -50 -163 -89 -207 -114 l-43 -25 0 -410 0 -409 53 29 c47 27 493 272
627 345 30 16 199 108 375 205 176 96 484 265 685 374 201 110 379 209 396
219 l32 19 89 -47 c274 -147 513 -279 513 -285 0 -4 -35 -30 -77 -59 -293
-196 -484 -410 -573 -641 -45 -116 -64 -208 -75 -356 l-7 -82 395 0 394 0 6
65 c16 172 98 329 234 446 191 166 472 204 715 96 207 -92 358 -305 383 -541
l7 -66 393 0 392 0 -3 62 c-20 424 -215 730 -653 1021 -70 47 -81 58 -65 64
10 4 40 19 65 34 25 15 84 47 130 72 46 25 154 84 239 130 l154 85 56 -29 c30
-15 69 -36 85 -45 17 -9 39 -22 50 -27 11 -6 124 -68 250 -137 127 -69 259
-142 295 -162 36 -19 88 -47 115 -63 140 -77 209 -115 330 -180 50 -27 107
-59 127 -72 21 -13 39 -23 42 -23 3 0 529 -287 762 -416 l61 -34 -1 411 -1
411 -40 22 c-22 13 -92 51 -155 85 -63 35 -140 77 -170 93 -248 136 -401 220
-495 271 -60 33 -144 78 -185 101 -42 23 -142 77 -222 121 -81 44 -144 83
-140 87 8 7 107 63 242 135 47 25 90 49 95 53 6 4 48 28 95 53 47 24 105 56
130 70 53 29 576 315 668 364 34 19 88 49 120 67 l57 32 1 407 c1 224 -1 407
-3 407 -3 0 -33 -15 -66 -34 -155 -85 -178 -97 -357 -194 -36 -19 -69 -38 -75
-42 -5 -4 -50 -29 -100 -55 -49 -26 -157 -85 -240 -130 -82 -46 -175 -96 -205
-112 -30 -17 -98 -54 -150 -83 -52 -28 -122 -67 -155 -85 -33 -18 -181 -99
-330 -180 -148 -81 -295 -161 -325 -177 -30 -17 -79 -44 -108 -60 l-53 -30
-47 24 c-26 14 -114 62 -197 108 -82 45 -189 103 -237 129 -49 25 -88 49 -88
52 0 4 84 55 188 114 355 203 553 346 747 540 66 66 129 131 140 145 11 14 36
46 56 70 182 226 327 543 395 865 12 59 28 171 40 280 6 58 6 384 0 425 -3 19
-8 60 -12 90 -3 30 -9 73 -14 95 -5 22 -11 55 -15 72 -7 44 -73 261 -89 298
-8 17 -24 55 -37 85 -115 274 -329 557 -580 767 -175 147 -442 305 -639 378
-3 1 -18 7 -35 14 -68 28 -285 90 -368 105 -15 2 -35 7 -45 10 -17 5 -39 8
-137 21 -27 4 -61 9 -75 12 -29 5 -466 13 -472 8z m402 -649 c19 -3 48 -8 64
-11 326 -52 622 -202 850 -430 204 -206 346 -488 391 -775 11 -73 14 -410 4
-480 -27 -190 -79 -371 -144 -500 -106 -210 -322 -454 -545 -615 -30 -22 -57
-42 -60 -46 -8 -10 -279 -189 -286 -189 -4 0 -22 -11 -40 -25 -18 -14 -36 -25
-39 -25 -4 0 -19 -8 -33 -19 -15 -10 -103 -62 -196 -115 -117 -67 -174 -95
-188 -90 -22 7 -238 129 -383 217 -516 313 -801 573 -963 878 -164 307 -211
689 -138 1104 5 27 57 195 66 215 4 8 29 60 56 115 126 259 362 492 639 630
172 86 331 134 525 159 95 13 354 14 420 2z m-35 -4247 c319 -172 396 -217
384 -225 -8 -5 -137 -77 -287 -160 l-274 -151 -186 104 c-103 56 -231 126
-284 155 -54 29 -98 55 -98 58 0 3 24 18 53 33 28 15 75 40 102 55 56 32 158
87 255 140 113 61 135 74 144 83 6 5 30 -3 60 -20 28 -15 87 -48 131 -72z"/>
</g>
</svg>
