<svg width="529" height="77" viewBox="0 0 529 77" fill="none" xmlns="http://www.w3.org/2000/svg">
<g id="Vector">
<path d="M0.624 4.576C10.608 1.94134 19.3093 0.624004 26.728 0.624004C42.6053 0.624004 50.544 6.136 50.544 17.16C50.544 23.8853 47.3893 29.016 41.08 32.552C45.3093 33.592 48.8107 35.6027 51.584 38.584C54.3573 41.496 55.744 45.1707 55.744 49.608C55.744 57.928 52.6587 64.376 46.488 68.952C40.3173 73.4587 32.6907 75.712 23.608 75.712C14.5253 75.712 6.656 73.9093 0 70.304C2.14933 62.816 3.224 52.728 3.224 40.04C3.224 27.2827 2.35733 15.4613 0.624 4.576ZM16.328 64.48C19.3787 65.4507 22.4293 65.936 25.48 65.936C30.264 65.936 34.216 64.7573 37.336 62.4C40.456 59.9733 42.016 56.576 42.016 52.208C42.016 43.888 37.5093 39.728 28.496 39.728C24.1973 39.728 19.8293 40.6293 15.392 42.432C15.392 49.4347 15.704 56.784 16.328 64.48ZM15.288 33.28C16.2587 33.072 17.68 32.8293 19.552 32.552C21.4933 32.2747 22.984 32.032 24.024 31.824C25.064 31.616 26.3467 31.304 27.872 30.888C29.4667 30.472 30.68 29.9867 31.512 29.432C32.4133 28.808 33.3147 28.0453 34.216 27.144C35.9493 25.4107 36.816 22.88 36.816 19.552C36.816 13.104 32.968 9.88 25.272 9.88C22.776 9.88 19.7253 10.296 16.12 11.128C15.5653 25.3413 15.288 32.7253 15.288 33.28Z" fill="#EA1414"/>
<path d="M117.904 60.736C118.736 62.608 119.152 64.7227 119.152 67.08C119.152 69.4373 118.32 71.4827 116.656 73.216C115.061 74.88 113.085 75.712 110.728 75.712C103.379 75.712 91.8693 75.296 76.2 74.464C74.952 74.3947 73.8427 74.0133 72.872 73.32C71.9013 72.5573 71.416 71.6213 71.416 70.512C71.416 66.8373 71.6933 60.632 72.248 51.896C72.872 43.16 73.184 35.0133 73.184 27.456C73.184 19.8293 72.456 11.0933 71 1.248C76.1307 1.664 83.0293 1.872 91.696 1.872C100.363 1.872 108.648 1.248 116.552 0C117.384 1.52533 117.8 3.36267 117.8 5.512C117.8 7.592 116.968 9.464 115.304 11.128C113.709 12.7227 111.699 13.52 109.272 13.52C106.915 13.52 103.101 13.1733 97.832 12.48C92.632 11.7867 88.784 11.44 86.288 11.44C85.7333 18.4427 85.4213 25.0293 85.352 31.2C89.72 31.616 94.4 31.824 99.392 31.824C104.453 31.824 108.787 31.096 112.392 29.64C113.224 31.1653 113.64 33.0027 113.64 35.152C113.64 37.232 112.808 39.1387 111.144 40.872C109.549 42.536 107.608 43.368 105.32 43.368C103.101 43.368 99.7733 42.952 95.336 42.12C90.8987 41.2187 87.536 40.768 85.248 40.768C85.248 51.7227 85.4907 59.7653 85.976 64.896C89.304 65.1733 91.904 65.312 93.776 65.312C102.928 65.312 110.971 63.7867 117.904 60.736Z" fill="#FF0099"/>
<path d="M176.056 2.288C178.275 1.17867 180.597 0.624004 183.024 0.624004C185.52 0.624004 187.531 1.38667 189.056 2.91201C190.651 4.43734 191.448 6.27467 191.448 8.424C191.448 10.5733 191.136 15.3227 190.512 22.672C189.888 29.952 189.576 35.7413 189.576 40.04C189.576 53.8373 190.2 65.312 191.448 74.464C189.229 75.296 186.733 75.712 183.96 75.712C181.256 75.712 179.141 75.2613 177.616 74.36C173.179 71.7947 162.813 55.5707 146.52 25.688C146.243 28.392 146.104 34.736 146.104 44.72C146.104 54.6347 146.867 64.3413 148.392 73.84C146.243 74.672 143.92 75.088 141.424 75.088C138.928 75.088 136.883 74.2907 135.288 72.696C133.763 71.1013 133 69.1947 133 66.976C133 64.7573 133.312 60.112 133.936 53.04C134.629 45.968 134.976 40.6293 134.976 37.024C134.976 23.2267 134.317 11.7867 133 2.704C134.941 1.73334 137.784 1.248 141.528 1.248C145.272 1.248 147.907 2.73867 149.432 5.72C159.693 26.5893 169.504 44.2693 178.864 58.76C178.656 45.448 178.552 38.4107 178.552 37.648C178.552 24.6827 177.72 12.896 176.056 2.288Z" fill="#FF7A00"/>
<path d="M253.904 60.736C254.736 62.608 255.152 64.7227 255.152 67.08C255.152 69.4373 254.32 71.4827 252.656 73.216C251.061 74.88 249.085 75.712 246.728 75.712C239.379 75.712 227.869 75.296 212.2 74.464C210.952 74.3947 209.843 74.0133 208.872 73.32C207.901 72.5573 207.416 71.6213 207.416 70.512C207.416 66.8373 207.693 60.632 208.248 51.896C208.872 43.16 209.184 35.0133 209.184 27.456C209.184 19.8293 208.456 11.0933 207 1.248C212.131 1.664 219.029 1.872 227.696 1.872C236.363 1.872 244.648 1.248 252.552 0C253.384 1.52533 253.8 3.36267 253.8 5.512C253.8 7.592 252.968 9.464 251.304 11.128C249.709 12.7227 247.699 13.52 245.272 13.52C242.915 13.52 239.101 13.1733 233.832 12.48C228.632 11.7867 224.784 11.44 222.288 11.44C221.733 18.4427 221.421 25.0293 221.352 31.2C225.72 31.616 230.4 31.824 235.392 31.824C240.453 31.824 244.787 31.096 248.392 29.64C249.224 31.1653 249.64 33.0027 249.64 35.152C249.64 37.232 248.808 39.1387 247.144 40.872C245.549 42.536 243.608 43.368 241.32 43.368C239.101 43.368 235.773 42.952 231.336 42.12C226.899 41.2187 223.536 40.768 221.248 40.768C221.248 51.7227 221.491 59.7653 221.976 64.896C225.304 65.1733 227.904 65.312 229.776 65.312C238.928 65.312 246.971 63.7867 253.904 60.736Z" fill="#9C39CA"/>
<path d="M271.704 0.936L293.648 1.248C305.019 1.248 313.339 0.832002 318.608 0C319.371 1.456 319.752 3.12 319.752 4.992C319.752 6.864 318.92 8.56267 317.256 10.088C315.592 11.544 313.581 12.272 311.224 12.272L299.264 10.92C299.264 11.4053 299.091 13.5547 298.744 17.368C297.773 26.728 297.288 36.1227 297.288 45.552C297.288 54.9813 298.016 64.4107 299.472 73.84C297.184 74.672 294.792 75.088 292.296 75.088C289.8 75.088 287.651 74.3947 285.848 73.008C284.045 71.552 283.144 69.4027 283.144 66.56C283.144 63.648 283.491 58.552 284.184 51.272C284.877 43.992 285.224 36.92 285.224 30.056C285.224 23.1227 284.877 16.6747 284.184 10.712C275.795 11.128 269.243 12.3067 264.528 14.248C263.696 12.6533 263.28 10.8853 263.28 8.944C263.28 6.93334 264.077 5.096 265.672 3.43201C267.267 1.768 269.277 0.936 271.704 0.936Z" fill="#734131"/>
<path d="M333.704 0.936L355.648 1.248C367.019 1.248 375.339 0.832002 380.608 0C381.371 1.456 381.752 3.12 381.752 4.992C381.752 6.864 380.92 8.56267 379.256 10.088C377.592 11.544 375.581 12.272 373.224 12.272L361.264 10.92C361.264 11.4053 361.091 13.5547 360.744 17.368C359.773 26.728 359.288 36.1227 359.288 45.552C359.288 54.9813 360.016 64.4107 361.472 73.84C359.184 74.672 356.792 75.088 354.296 75.088C351.8 75.088 349.651 74.3947 347.848 73.008C346.045 71.552 345.144 69.4027 345.144 66.56C345.144 63.648 345.491 58.552 346.184 51.272C346.877 43.992 347.224 36.92 347.224 30.056C347.224 23.1227 346.877 16.6747 346.184 10.712C337.795 11.128 331.243 12.3067 326.528 14.248C325.696 12.6533 325.28 10.8853 325.28 8.944C325.28 6.93334 326.077 5.096 327.672 3.43201C329.267 1.768 331.277 0.936 333.704 0.936Z" fill="#FFF500"/>
<path d="M441.88 37.232C441.88 28.9813 440.181 22.3253 436.784 17.264C433.456 12.1333 428.221 9.568 421.08 9.568C416.781 9.568 412.968 10.9547 409.64 13.728C407.768 16.64 406.277 20.5573 405.168 25.48C404.128 30.4027 403.608 35.0827 403.608 39.52C403.608 47.7013 405.272 54.2533 408.6 59.176C411.928 64.0987 417.197 66.56 424.408 66.56C428.36 66.56 431.723 64.9653 434.496 61.776C439.419 56.0213 441.88 47.84 441.88 37.232ZM420.872 76.336C410.749 76.336 403.053 73.008 397.784 66.352C392.515 59.6267 389.88 50.856 389.88 40.04C389.88 29.1547 393.139 19.76 399.656 11.856C406.173 3.952 414.459 0 424.512 0C434.635 0 442.331 3.39734 447.6 10.192C452.939 16.9867 455.608 25.8267 455.608 36.712C455.608 47.5973 452.349 56.9227 445.832 64.688C439.315 72.4533 430.995 76.336 420.872 76.336Z" fill="#005DB2"/>
<path d="M513.056 2.288C515.275 1.17867 517.597 0.624004 520.024 0.624004C522.52 0.624004 524.531 1.38667 526.056 2.91201C527.651 4.43734 528.448 6.27467 528.448 8.424C528.448 10.5733 528.136 15.3227 527.512 22.672C526.888 29.952 526.576 35.7413 526.576 40.04C526.576 53.8373 527.2 65.312 528.448 74.464C526.229 75.296 523.733 75.712 520.96 75.712C518.256 75.712 516.141 75.2613 514.616 74.36C510.179 71.7947 499.813 55.5707 483.52 25.688C483.243 28.392 483.104 34.736 483.104 44.72C483.104 54.6347 483.867 64.3413 485.392 73.84C483.243 74.672 480.92 75.088 478.424 75.088C475.928 75.088 473.883 74.2907 472.288 72.696C470.763 71.1013 470 69.1947 470 66.976C470 64.7573 470.312 60.112 470.936 53.04C471.629 45.968 471.976 40.6293 471.976 37.024C471.976 23.2267 471.317 11.7867 470 2.704C471.941 1.73334 474.784 1.248 478.528 1.248C482.272 1.248 484.907 2.73867 486.432 5.72C496.693 26.5893 506.504 44.2693 515.864 58.76C515.656 45.448 515.552 38.4107 515.552 37.648C515.552 24.6827 514.72 12.896 513.056 2.288Z" fill="#0BB23A"/>
</g>
</svg>
