<svg width="418" height="418" viewBox="-5 -5 425 430" fill="none" xmlns="http://www.w3.org/2000/svg">
<g clip-path="url(#clip0_199:2)">
<path class="wheel-slice" d="M209 -1.19387e-05C227.267 -0.0212892 245.456 2.37162 263.095 7.11657L253.26 43.7974C224.265 36.0257 193.731 36.0462 164.746 43.8569L154.918 7.14964C172.558 2.4241 190.738 0.0205921 209 -1.19387e-05Z" fill="#FF0099"/>
<path class="wheel-slice" d="M294.505 60.8944C281.56 53.4213 267.695 47.6714 253.26 43.7908L263.095 7.10336C280.737 11.847 297.682 18.8777 313.5 28.0166C329.33 37.135 343.885 48.3056 356.788 61.2383L329.955 88.071C319.385 77.5264 307.48 68.4101 294.544 60.9539C294.544 60.9539 294.511 60.9076 294.505 60.8944Z" fill="#9C39CA"/>
<path class="wheel-slice" d="M389.957 104.5C380.825 88.686 369.668 74.1315 356.768 61.2053L329.936 88.038C340.526 98.6028 349.677 110.518 357.152 123.475C364.611 136.43 370.35 150.301 374.222 164.74L410.89 154.905C406.138 137.263 399.101 120.318 389.957 104.5Z" fill="#E2B0E2"/>
<path class="wheel-slice" d="M374.196 164.733C378.064 179.171 380.03 194.053 380.043 209C380.059 223.951 378.097 238.837 374.209 253.274L410.837 263.089C415.57 245.448 417.978 227.265 418 209C418.013 190.733 415.616 172.544 410.87 154.905L374.196 164.733Z" fill="#005DB2"/>
<path class="wheel-slice" d="M374.209 253.274C370.332 267.697 364.582 281.549 357.106 294.478C349.643 307.426 340.511 319.336 329.942 329.902L356.788 356.748C369.71 343.857 380.872 329.315 389.983 313.5C399.126 297.692 406.146 280.749 410.864 263.108L374.209 253.274Z" fill="#89D5FF"/>
<path class="wheel-slice" d="M253.254 374.143C238.82 378.012 223.943 379.975 209 379.983C194.057 379.995 179.177 378.036 164.746 374.156L154.905 410.883C172.545 415.625 190.734 418.018 209 418C227.262 417.98 245.443 415.574 263.082 410.844L253.254 374.143Z" fill="#B3ED97"/>
<path class="wheel-slice" d="M61.2185 356.788L88.1173 329.889C98.6893 340.444 110.596 349.572 123.535 357.039C136.46 364.509 150.305 370.259 164.72 374.143L154.878 410.877C137.245 406.138 120.309 399.112 104.5 389.977C88.6752 380.867 74.1222 369.708 61.2185 356.788Z" fill="#F2E9D6"/>
<path class="wheel-slice" d="M7.13635 263.095L43.9098 253.234C47.7726 267.668 53.5094 281.534 60.9737 294.478C68.4283 307.422 77.5595 319.324 88.1305 329.876L61.2118 356.782C48.3135 343.861 37.1584 329.311 28.0297 313.5C18.9008 297.68 11.877 280.735 7.13635 263.095Z" fill="#FFF500"/>
<path class="wheel-slice" d="M43.8702 164.753L7.14969 154.918C2.41425 172.556 0.0105682 190.738 3.52096e-05 209C-0.0106018 227.267 2.38891 245.456 7.13646 263.095L43.9099 253.247C40.0401 238.816 38.0724 223.941 38.0566 209C38.0414 194.06 39.9962 179.182 43.8702 164.753Z" fill="#FF7A00"/>
<path class="wheel-slice" d="M60.9671 123.528C68.4253 110.598 77.5415 98.6979 88.0842 88.1305L61.2251 61.2185C48.2956 74.1215 37.1253 88.6743 28.0033 104.5V104.513C18.8629 120.325 11.8405 137.269 7.11658 154.911H7.15626L43.8635 164.746C47.7419 150.318 53.4896 136.46 60.9605 123.522L60.9671 123.528Z" fill="#EA1414"/>
<path class="wheel-slice" d="M154.918 7.14966L164.746 43.8437C150.319 47.7223 136.458 53.4653 123.515 60.9275C110.569 68.3888 98.6626 77.5241 88.1041 88.0975L61.2185 61.2119C74.1207 48.2851 88.6737 37.119 104.5 28.0034C120.326 18.8863 137.276 11.8757 154.918 7.14966Z" fill="#734131"/>
<path class="wheel-slice" d="M262.828 410.948L253 374.254C267.428 370.375 281.288 364.632 294.231 357.17C307.177 349.709 319.442 340.573 330 330L356.528 356.886C343.626 369.812 329.073 380.978 313.246 390.094C297.42 399.211 280.471 406.222 262.828 410.948Z" fill="#0BB23A"/>
</g>
<defs>
<clipPath id="clip0_199:2">
<rect width="418" height="418" fill="white"/>
</clipPath>
</defs>
</svg>
