<svg width="260" height="260" viewBox="0 0 260 260" fill="none" xmlns="http://www.w3.org/2000/svg">
<path d="M129.964 147.98C93.3005 127.646 73.1139 113.09 73.1139 78.5567C73.1139 45.022 100.148 23.831 129.964 23.831C159.852 23.7596 186.886 44.9506 186.886 78.4852C186.886 113.09 166.628 127.574 129.964 147.98ZM129.964 201.921L108.565 190.148L129.964 178.447L151.364 190.148L129.964 201.921ZM260 130.856L179.254 175.022C179.254 175.022 164.56 166.959 157.855 163.32C174.831 153.403 216.702 135.066 216.702 80.269C216.631 33.4632 177.399 0 129.964 0C82.6006 0 43.369 33.4632 43.369 80.1264C43.369 134.994 85.1686 153.26 102.217 163.178C95.4404 166.888 80.8178 174.879 80.8178 174.879L0 130.856V161.323L52.8561 190.22L0 219.116V249.583L80.6748 205.417C80.6748 205.417 96.3676 213.979 103.215 217.761C84.5269 229.462 75.8244 241.735 75.8244 260H105.07C105.07 246.229 116.198 235.099 129.964 235.099C143.731 235.099 154.859 246.229 154.859 260H184.104C184.104 241.663 175.402 229.391 156.713 217.761C163.632 213.979 179.254 205.417 179.254 205.417L259.928 249.583V219.116L207.073 190.22L259.928 161.323V130.856H260Z" fill="#0BB23A"/>
</svg>
