<svg version="1.1" xmlns="http://www.w3.org/2000/svg" xmlns:xlink="http://www.w3.org/1999/xlink" class="wheel" x="0px" y="0px" viewBox="0 0 632 632" xml:space="preserve">
<path class="wheel-slice wheel-slice--fuchsia " data-rotate="360.0" d="M316 0a313.46 313.46 0 0181.79 10.76l-14.87 55.46a257.82 257.82 0 00-133.83.09l-14.86-55.5A317.38 317.38 0 01316 0z" data-attr-colour="colour1"></path>
<path class="wheel-slice wheel-slice--violet " data-rotate="330.0" d="M445.28 92.07a259.45 259.45 0 00-62.36-25.86l14.87-55.47A316.76 316.76 0 01474 42.36a313.47 313.47 0 0165.45 50.23l-40.57 40.57a258.83 258.83 0 00-53.54-41s-.05-.07-.06-.09z" data-attr-colour="colour2"></path>
<path class="wheel-slice wheel-slice--lilac " data-rotate="300.0" d="M589.6 158a317.33 317.33 0 00-50.18-65.46l-40.57 40.57A257.28 257.28 0 01540 186.69a260 260 0 0125.81 62.39l55.44-14.87A317.07 317.07 0 00589.6 158z" data-attr-colour="colour3"></path>
<path class="wheel-slice wheel-slice--blue " data-rotate="270.0" d="M632 316h-57.39a259.52 259.52 0 00-8.84-66.93l55.45-14.86A314 314 0 01632 316zM621.17 397.78l-55.38-14.84a256.38 256.38 0 008.82-66.94H632a317.08 317.08 0 01-10.83 81.78z" data-attr-colour="colour4"></path>
<path class="wheel-slice wheel-slice--lightblue " data-rotate="240.0" d="M565.79 382.94a258.48 258.48 0 01-25.86 62.3 257.68 257.68 0 01-41.07 53.56l40.59 40.59A313.24 313.24 0 00589.64 474a314.45 314.45 0 0031.57-76.19z" data-attr-colour="colour5"></path>
<path class="wheel-slice wheel-slice--green " data-rotate="210.0" d="M474 589.66l-28.72-49.73a257.22 257.22 0 0053.58-41.08l40.6 40.6A313.6 313.6 0 01474 589.66zM397.77 621.2l-14.86-55.49a260.84 260.84 0 0062.37-25.77L474 589.68a317.12 317.12 0 01-76.23 31.52z" data-attr-colour="colour6"></path>
<path class="wheel-slice wheel-slice--lightgreen " data-rotate="180.0" d="M316 632v-57.48a259 259 0 0066.91-8.83l14.86 55.49A317 317 0 01316 632zM234.21 621.24l14.88-55.53a256.88 256.88 0 0066.91 8.81V632a313.89 313.89 0 01-81.79-10.76z" data-attr-colour="colour7"></path>
<path class="wheel-slice wheel-slice--beige " data-rotate="150.0" d="M92.56 539.45l40.67-40.67a259.1 259.1 0 0053.55 41.05 259.25 259.25 0 0062.27 25.86l-14.88 55.54a316.3 316.3 0 01-76.17-31.6 313.67 313.67 0 01-65.44-50.18z" data-attr-colour="colour8"></path>
<path class="wheel-slice wheel-slice--yellow " data-rotate="120.0" d="M10.79 397.79l55.6-14.91a258.73 258.73 0 0025.8 62.36 256.51 256.51 0 0041.06 53.52l-40.7 40.68A316.93 316.93 0 0142.38 474a317.21 317.21 0 01-31.59-76.21z" data-attr-colour="colour9"></path>
<path class="wheel-slice wheel-slice--orange " data-rotate="90.0" d="M10.81 234.23l55.52 14.87a257 257 0 00-8.79 66.9H0a316.05 316.05 0 0110.81-81.77zM0 316h57.54a259.36 259.36 0 008.85 66.9l-55.6 14.89A314 314 0 010 316z" data-attr-colour="colour10"></path>
<path class="wheel-slice wheel-slice--red " data-rotate="60.0" d="M92.18 186.77a259 259 0 0141-53.52L92.57 92.56A313.94 313.94 0 0042.34 158l49 28.32-49-28.3a315.11 315.11 0 00-31.58 76.2h.06l55.5 14.87a259.21 259.21 0 0125.85-62.33z" data-attr-colour="colour11"></path>
<path class="wheel-slice wheel-slice--brown " data-rotate="30.0" d="M234.23 10.81l14.86 55.48a259.9 259.9 0 00-62.34 25.83 257.07 257.07 0 00-53.54 41.08L92.56 92.55A313.6 313.6 0 01158 42.34a317.08 317.08 0 0176.23-31.53z" data-attr-colour="colour12"></path>
</svg>