<svg width="24" height="24" viewBox="0 0 24 24" fill="none" xmlns="http://www.w3.org/2000/svg">
<path d="M9.85413 19.7083C4.39646 19.7083 0 15.3118 0 9.85413C0 4.39646 4.39646 0 9.85413 0C15.3118 0 19.7083 4.39646 19.7083 9.85413C19.7083 15.3118 15.3118 19.7083 9.85413 19.7083ZM9.85413 1.51602C5.23027 1.51602 1.51602 5.23027 1.51602 9.85413C1.51602 14.478 5.23027 18.1922 9.85413 18.1922C14.478 18.1922 18.1922 14.478 18.1922 9.85413C18.1922 5.23027 14.478 1.51602 9.85413 1.51602Z" fill="black"/>
<path d="M17.193 16.1206L24 22.9275L22.9281 23.9993L16.1212 17.1924L17.193 16.1206Z" fill="black"/>
</svg>
